<?xml version="1.0" encoding="iso-8859-1"?>
<!-- Uploaded to: SVG Repo, www.svgrepo.com, Generator: SVG Repo Mixer Tools -->
<svg fill="#000000" height="800px" width="800px" version="1.1" id="Layer_1" xmlns="http://www.w3.org/2000/svg" xmlns:xlink="http://www.w3.org/1999/xlink" 
	 viewBox="0 0 512 512" xml:space="preserve">
<g transform="translate(1 1)">
	<g>
		<path d="M401.159,216.6L292.786,21.187C285.106,7.533,271.453-1,255.239-1c-16.213,0-29.867,8.533-37.547,22.187L108.466,216.6
			c-46.08,84.48-29.013,187.733,41.813,251.733l5.12,4.267c26.612,24.192,60.082,36.947,93.93,38.277
			c1.415,0.074,2.82,0.123,4.204,0.123c0.193,0,0.386-0.011,0.579-0.013c0.376,0.003,0.752,0.013,1.128,0.013
			c35.84,0,71.68-12.8,99.84-38.4l4.267-4.267C430.173,404.333,448.093,300.227,401.159,216.6z M268.039,487.107l-4.267,4.267
			c-0.767,0.767-1.624,1.398-2.534,1.906c-1.737,0.216-3.486,0.358-5.242,0.432c-1.787,0.01-3.574-0.017-5.36-0.079
			c-0.93-0.764-2.523-1.605-4.784-3.113l-3.413-3.413c-23.893-21.333-29.013-55.467-13.653-83.627l24.747-52.053l28.16,52.907
			C297.053,431.64,291.932,465.773,268.039,487.107z M300.466,473.453l-0.747,0.747c12.279-24.364,12.447-53.833-1.813-79.253
			l-29.867-55.467c-2.56-5.12-7.68-7.68-13.653-7.68s-11.093,3.413-13.653,8.533l-26.453,54.613
			c-15.852,28.257-14.438,61.52,2.423,87.208c-2.23-1.587-4.46-3.337-6.69-5.288l-4.267-3.413
			c-41.813-37.547-52.053-98.133-24.747-146.773l66.56-119.467c1.707-3.413,5.12-3.413,5.973-3.413s4.267,0,5.12,3.413
			l66.56,119.467C352.519,375.32,342.279,435.907,300.466,473.453z M348.253,455.533l-4.267,4.267
			c-6.402,5.751-13.234,10.767-20.382,15.055c38.15-43.439,45.125-105.09,16.969-156.709l-66.56-119.467
			c-4.267-7.68-11.947-11.947-20.48-11.947S237.319,191,232.199,198.68l-66.56,119.467
			c-26.717,48.981-21.802,107.641,11.366,150.164c-3.612-2.634-7.124-5.466-10.513-8.511l-4.267-4.267
			c-65.707-58.88-81.067-153.6-38.4-230.4L232.199,29.72c5.12-8.533,13.653-13.653,23.04-13.653s18.773,5.12,23.04,13.653
			l108.373,195.413C429.319,301.933,413.959,396.653,348.253,455.533z"/>
	</g>
</g>
</svg>